        <svg xmlns="http://www.w3.org/2000/svg" xmlns:xlink="http://www.w3.org/1999/xlink" version="1.1" width="3171.4285714285716" height="2316.9645373316266" viewBox="0 0 3171.4285714285716 2316.9645373316266">
			
			<g transform="scale(8.571428571428573) translate(10, 10)">
				<defs id="SvgjsDefs1034"/><g id="SvgjsG1035" featureKey="ghXSps-0" transform="matrix(0.48959256151256814,0,0,0.48959256151256814,101.51215959858175,-3.4388839934292963)" fill="#000"><g xmlns="http://www.w3.org/2000/svg"><path d="M273.5,150c0.1-0.1-91.1-91.8-91.1-91.8c-2.2-2.2-1.5-5.8,1.2-7.1c18.1-8.9,40.4-6.3,55.7,8.3   c10.1,9.7,15.2,22.8,15.1,35.7c0,2.4,1,4.7,2.7,6.4l23.8,23.8c2.3,2.3,6.3,1.4,7.3-1.6c10.7-30.8,3.8-66.4-20.8-91   c-32-32-82.9-34-117.3-6.1c-0.1-0.1-91.8,91.1-91.8,91.1c-2.2,2.2-5.8,1.5-7.1-1.2c-8.9-18.1-6.3-40.4,8.3-55.7   c9.7-10.1,22.8-15.2,35.7-15.1c2.4,0,4.7-1,6.4-2.7l23.8-23.8c2.3-2.3,1.4-6.3-1.6-7.3C93,1.2,57.4,8.1,32.8,32.7   c-32,32-34,82.9-6.1,117.3c-0.1,0.1,91.1,91.8,91.1,91.8c2.2,2.2,1.5,5.8-1.2,7.1c-18.1,8.9-40.4,6.3-55.7-8.3   c-10.1-9.7-15.2-22.8-15.1-35.7c0-2.4-1-4.7-2.7-6.4l-23.8-23.8c-2.3-2.3-6.3-1.4-7.3,1.6c-10.7,30.8-3.8,66.4,20.8,91   c32,32,82.9,34,117.3,6.1c0.1,0.1,91.8-91.1,91.8-91.1c2.2-2.2,5.8-1.5,7.1,1.2c8.9,18.1,6.3,40.4-8.3,55.7   c-9.7,10.1-22.8,15.2-35.7,15.1c-2.4,0-4.7,1-6.4,2.7l-23.8,23.8c-2.3,2.3-1.4,6.3,1.6,7.3c30.8,10.7,66.4,3.8,91-20.8   C299.4,235.3,301.4,184.4,273.5,150z M232.2,167.4c-13.4-4.5-29-1.4-39.7,9.3c0,0-40.6,40.6-56.4,56.4c-1.2,1.2-3.3,0-2.8-1.7   c4-13.3,0.8-28.2-9.6-38.7c0,0-40.9-40.9-57.5-57.6c-1.2-1.2,0.1-3.3,1.7-2.8c13.4,4.5,29,1.4,39.7-9.3c0,0,40.4-40.4,57.9-57.8   c1.2-1.2,3.4,0.1,2.8,1.7c-5,13.7-2,29.6,9.1,40.7c0,0,40.2,40.2,56.7,56.8C235.2,165.9,233.9,168,232.2,167.4z"/></g></g><g id="SvgjsG1036" featureKey="anH1Ye-0" transform="matrix(3.5569107897323224,0,0,3.5569107897323224,-3.485774337847598,141.2906467358285)" fill="#000"><path d="M12 9.84 l-1.82 0 c-0.1 -2.22 -1.94 -2.92 -3.56 -2.92 c-1.22 0 -3.28 0.34 -3.28 2.52 c0 1.22 0.86 1.62 1.7 1.82 l4.1 0.94 c1.86 0.44 3.26 1.56 3.26 3.84 c0 3.4 -3.16 4.34 -5.62 4.34 c-2.66 0 -3.7 -0.8 -4.34 -1.38 c-1.22 -1.1 -1.46 -2.3 -1.46 -3.64 l1.82 0 c0 2.6 2.12 3.36 3.96 3.36 c1.4 0 3.76 -0.36 3.76 -2.42 c0 -1.5 -0.7 -1.98 -3.06 -2.54 l-2.94 -0.68 c-0.94 -0.22 -3.06 -0.88 -3.06 -3.38 c0 -2.24 1.46 -4.44 4.94 -4.44 c5.02 0 5.52 3 5.6 4.58 z M18.38 18.06 l2.8 -8.52 l1.94 0 c-1.22 3.42 -2.42 6.84 -3.76 10.26 c-1.66 4.24 -1.84 4.48 -4.1 4.48 c-0.26 0 -0.46 -0.08 -0.74 -0.16 l0 -1.6 c0.22 0.08 0.58 0.18 1.06 0.18 c0.92 0 1.02 -0.26 1.86 -2.42 l-3.88 -10.74 l2 0 l2.78 8.52 l0.04 0 z M33.16 12.879999999999999 l0 7.12 l-1.76 0 l0 -6.44 c0 -1.82 -0.52 -2.74 -2.24 -2.74 c-1 0 -2.76 0.64 -2.76 3.48 l0 5.7 l-1.76 0 l0 -10.46 l1.66 0 l0 1.48 l0.04 0 c0.38 -0.56 1.36 -1.78 3.16 -1.78 c1.62 0 3.66 0.66 3.66 3.64 z M42.88 16.72 l1.76 0 c-0.06 0.5 -0.54 1.98 -1.86 2.86 c-0.48 0.32 -1.16 0.72 -2.84 0.72 c-2.94 0 -4.68 -2.22 -4.68 -5.24 c0 -3.24 1.56 -5.82 5.02 -5.82 c3.02 0 4.5 2.4 4.5 6.1 l-7.64 0 c0 2.18 1.02 3.44 3.04 3.44 c1.66 0 2.64 -1.28 2.7 -2.06 z M37.14 13.940000000000001 l5.82 0 c-0.1 -1.62 -0.78 -3.12 -2.92 -3.12 c-1.62 0 -2.9 1.5 -2.9 3.12 z M48.879999999999995 13.92 l0 6.08 l-1.76 0 l0 -10.46 l1.66 0 l0 1.74 l0.04 0 c0.7 -1.22 1.62 -2.04 2.94 -2.04 c0.22 0 0.32 0.02 0.46 0.06 l0 1.82 l-0.66 0 c-1.64 0 -2.68 1.28 -2.68 2.8 z M54.85999999999999 14.74 c0 2.3 0.9 4.04 2.82 4.04 c1.12 0 2.86 -0.74 2.86 -3.52 c0 -1.7 -0.28 -4.44 -2.82 -4.44 c-2.72 0 -2.86 2.58 -2.86 3.92 z M62.22 9.54 l0 9.6 c0 1.5 -0.02 5.26 -4.86 5.26 c-1.24 0 -3.66 -0.34 -4 -3.12 l1.76 0 c0.32 1.66 1.94 1.66 2.36 1.66 c3.04 0 2.98 -2.44 2.98 -3.68 l0 -0.44 l-0.04 0 l0 0.08 c-0.46 0.74 -1.38 1.4 -2.78 1.4 c-3.56 0 -4.6 -3.34 -4.6 -5.84 c0 -2.94 1.58 -5.22 4.36 -5.22 c1.9 0 2.7 1.18 3.12 1.78 l0.04 0 l0 -1.48 l1.66 0 z M66.46 9.54 l0 10.46 l-1.76 0 l0 -10.46 l1.76 0 z M66.46 7.640000000000001 l-1.76 0 l0 -2 l1.76 0 l0 2 z M76.22 16.72 l1.76 0 c-0.06 0.5 -0.54 1.98 -1.86 2.86 c-0.48 0.32 -1.16 0.72 -2.84 0.72 c-2.94 0 -4.68 -2.22 -4.68 -5.24 c0 -3.24 1.56 -5.82 5.02 -5.82 c3.02 0 4.5 2.4 4.5 6.1 l-7.64 0 c0 2.18 1.02 3.44 3.04 3.44 c1.66 0 2.64 -1.28 2.7 -2.06 z M70.48 13.940000000000001 l5.82 0 c-0.1 -1.62 -0.78 -3.12 -2.92 -3.12 c-1.62 0 -2.9 1.5 -2.9 3.12 z M87.86 12.52 l-1.7 0 c-0.02 -0.66 -0.26 -1.76 -2.48 -1.76 c-0.54 0 -2.08 0.18 -2.08 1.48 c0 0.86 0.54 1.06 1.9 1.4 l1.76 0.44 c2.18 0.54 2.94 1.34 2.94 2.76 c0 2.16 -1.78 3.46 -4.14 3.46 c-4.14 0 -4.44 -2.4 -4.5 -3.66 l1.7 0 c0.06 0.82 0.3 2.14 2.78 2.14 c1.26 0 2.4 -0.5 2.4 -1.66 c0 -0.84 -0.58 -1.12 -2.08 -1.5 l-2.04 -0.5 c-1.46 -0.36 -2.42 -1.1 -2.42 -2.54 c0 -2.3 1.9 -3.34 3.96 -3.34 c3.74 0 4 2.76 4 3.28 z M99.38 16.58 l-2.06 0 l0 3.42 l-1.76 0 l0 -3.42 l-6.14 0 l0 -1.72 l6.44 -8.92 l1.46 0 l0 9.12 l2.06 0 l0 1.52 z M95.52 8.68 l-4.48 6.38 l4.52 0 l0 -6.38 l-0.04 0 z"/></g><g id="SvgjsG1037" featureKey="XxVAgm-0" transform="matrix(0.8550367268125302,0,0,0.8550367268125302,13.657984820019049,233.040786821402)" fill="#000"><path d="M12.46 20 l-1.28 -2.96 l-7.16 0 l-1.28 2.96 l-2.34 0 l6.24 -14 l1.92 0 l6.24 14 l-2.34 0 z M4.82 15.219999999999999 l5.56 0 l-2.78 -6.44 z M28.896 6 l0 14 l-2.2 0 l0 -14 l2.2 0 z M62.588 6 c3.14 0 5.06 1.92 5.06 4.62 s-1.92 4.5 -5.06 4.5 l-2.5 0 l0 4.88 l-2.2 0 l0 -14 l4.7 0 z M62.488 13.2 c1.78 0 2.96 -0.84 2.96 -2.58 s-1.18 -2.58 -2.96 -2.58 l-2.4 0 l0 5.16 l2.4 0 z M86.744 5.800000000000001 c3.76 0 7.2 2.96 7.2 7.2 s-3.44 7.2 -7.2 7.2 s-7.2 -2.96 -7.2 -7.2 s3.44 -7.2 7.2 -7.2 z M86.744 18.12 c2.58 0 4.92 -2.12 4.92 -5.12 s-2.34 -5.12 -4.92 -5.12 s-4.92 2.12 -4.92 5.12 s2.34 5.12 4.92 5.12 z M125.1 6 l-4.56 14 l-1.52 0 l-3.6 -10.04 l-3.6 10.04 l-1.52 0 l-4.56 -14 l2.3 0 l3.1 9.6 l3.46 -9.6 l1.64 0 l3.46 9.6 l3.1 -9.6 l2.3 0 z M139.39600000000002 17.96 l6.34 0 l0 2.04 l-6.74 0 l-1.8 0 l0 -14 l2.2 0 l6.16 0 l0 2.04 l-6.16 0 l0 3.92 l4.74 0 l0 2 l-4.74 0 l0 4 z M168.73200000000003 20 l-2.36 0 l-3.3 -4.88 l-0.24 0 l-2.5 0 l0 4.88 l-2.2 0 l0 -14 l4.7 0 c3.14 0 5.06 1.92 5.06 4.62 c0 1.96 -1.02 3.46 -2.78 4.12 z M160.33200000000002 8.04 l0 5.16 l2.4 0 c1.78 0 2.96 -0.84 2.96 -2.58 s-1.18 -2.58 -2.96 -2.58 l-2.4 0 z M183.02800000000002 17.96 l6.34 0 l0 2.04 l-6.74 0 l-1.8 0 l0 -14 l2.2 0 l6.16 0 l0 2.04 l-6.16 0 l0 3.92 l4.74 0 l0 2 l-4.74 0 l0 4 z M206.28400000000002 6 c4.04 0 7.08 3.1 7.08 6.96 c0 3.94 -3.04 7.04 -7.08 7.04 l-4.52 0 l0 -14 l4.52 0 z M206.264 17.92 c3.06 0 4.86 -2.22 4.86 -4.96 c0 -2.66 -1.8 -4.88 -4.86 -4.88 l-2.3 0 l0 9.84 l2.3 0 z M253.21600000000004 20 l-1.28 -2.96 l-7.16 0 l-1.28 2.96 l-2.34 0 l6.24 -14 l1.92 0 l6.24 14 l-2.34 0 z M245.57600000000002 15.219999999999999 l5.56 0 l-2.78 -6.44 z M280.672 12.780000000000001 c0.44 4.58 -2.62 7.42 -6.32 7.42 c-3.84 0 -7.2 -2.96 -7.2 -7.2 s3.44 -7.2 7.2 -7.2 c1.8 0 3.42 0.6 4.66 1.66 l-1.34 1.52 c-0.88 -0.68 -2.02 -1.1 -3.18 -1.1 c-2.72 0 -5.06 2.12 -5.06 5.12 s2.26 5.12 4.92 5.12 c2.22 0 3.86 -1.02 4.28 -3.44 l-3.74 0 l0 -1.9 l5.78 0 z M295.308 6 l0 14 l-2.2 0 l0 -14 l2.2 0 z M310.204 17.96 l5.94 0 l0 2.04 l-8.14 0 l0 -14 l2.2 0 l0 11.96 z M330.64 6 l0 14 l-2.2 0 l0 -14 l2.2 0 z M352.576 6 l0 2.04 l-3.72 0 l0 11.96 l-2.2 0 l0 -11.96 l-3.72 0 l0 -2.04 l9.64 0 z M376.992 6 l-5.26 7.76 l0 6.24 l-2.2 0 l0 -6.24 l-5.26 -7.76 l2.5 0 l3.86 5.76 l3.86 -5.76 l2.5 0 z"/></g>
			</g>
		</svg>